<?xml version="1.0" encoding="UTF-8" standalone="no"?>
<svg
   xmlns:dc="http://purl.org/dc/elements/1.1/"
   xmlns:cc="http://creativecommons.org/ns#"
   xmlns:rdf="http://www.w3.org/1999/02/22-rdf-syntax-ns#"
   xmlns:svg="http://www.w3.org/2000/svg"
   xmlns="http://www.w3.org/2000/svg"
   xmlns:sodipodi="http://sodipodi.sourceforge.net/DTD/sodipodi-0.dtd"
   xmlns:inkscape="http://www.inkscape.org/namespaces/inkscape"
   viewBox="0 0 203 152"
   id="loading-svg"
   version="1.1"
   inkscape:version="0.48.5 r10040"
   sodipodi:docname="loading.svg"
   width="100%"
   height="100%">
  <defs
     id="defs3075" />
  <sodipodi:namedview
     pagecolor="#ffffff"
     bordercolor="#666666"
     borderopacity="1"
     objecttolerance="10"
     gridtolerance="10"
     guidetolerance="10"
     inkscape:pageopacity="0"
     inkscape:pageshadow="2"
     inkscape:window-width="1578"
     inkscape:window-height="848"
     id="namedview3073"
     showgrid="false"
     inkscape:zoom="1.4252621"
     inkscape:cx="-71.65358"
     inkscape:cy="73.548804"
     inkscape:window-x="0"
     inkscape:window-y="30"
     inkscape:window-maximized="0"
     inkscape:current-layer="layer7"
     fit-margin-top="0"
     fit-margin-left="0"
     fit-margin-right="0"
     fit-margin-bottom="0" />
  <title
     id="title3060">Place Setting</title>
  <metadata
     id="metadata7">image/svg+xml<rdf:RDF>
  <cc:Work
     rdf:about="">
    <dc:format>image/svg+xml</dc:format>
    <dc:type
       rdf:resource="http://purl.org/dc/dcmitype/StillImage" />
  </cc:Work>
</rdf:RDF>
</metadata>
  <g
     inkscape:groupmode="layer"
     id="loading-box"
     inkscape:label="box"
     style="display:inline"
     transform="translate(-816.53126,-608.73463)">
    <rect
       style="fill:#ffffff;fill-opacity:1;stroke:#5d8a31;stroke-width:1.0076673;stroke-miterlimit:4;stroke-opacity:1;stroke-dasharray:none"
       id="rect3959"
       width="199.22639"
       height="148.79871"
       data-async="true"
       data-duration="1"
       x="818.41809"
       y="610.33527" />
    <text
       xml:space="preserve"
       style="font-size:52.80811691px;font-style:normal;font-variant:normal;font-weight:200;font-stretch:normal;text-align:start;line-height:125%;letter-spacing:0px;word-spacing:0px;writing-mode:lr-tb;text-anchor:start;fill:#5d8a31;fill-opacity:1;stroke:none;font-family:DejaVu Sans;-inkscape-font-specification:DejaVu Sans Ultra-Light"
       x="900.9549"
       y="683.65161"
       id="text3023"
       sodipodi:linespacing="125%"
       transform="scale(0.99255415,1.0075017)"><tspan
         sodipodi:role="line"
         x="900.9549"
         y="683.65161"
         id="tspan3025"><tspan
           x="900.9549"
           y="683.65161"
           id="tspan3027">m</tspan></tspan></text>
  </g>
  <g
     inkscape:groupmode="layer"
     id="layer3"
     inkscape:label="fork"
     style="display:inline"
     transform="translate(-816.53126,-608.73463)">
    <path
       stroke-miterlimit="4"
       id="path4031"
       d="m 984.86329,651.66506 0.18964,-16.02229 c 0,0 -0.28447,-3.20461 2.37206,-3.20461 2.56171,0 2.08722,3.20461 2.08722,3.20461 l -0.0948,16.02229 c 0,0 -0.28483,1.6023 1.89758,1.69655 2.18204,0.0943 1.80238,-1.7908 1.80238,-1.7908 l -0.0948,-15.73954 c 0,0 -0.18964,-3.39311 2.0876,-3.39311 2.27686,0 1.80237,3.48737 1.80237,3.48737 l 0,16.11655 c 0,0 0.71175,1.39013 2.27724,1.31953 1.56552,-0.071 1.82612,-1.34319 1.87372,-1.30789 l 0.2135,-16.03394 c 0,0 0,-3.39311 1.9925,-3.48736 1.9924,-0.0943 1.9924,3.48736 1.9924,3.48736 l -0.095,16.96482 c 0,0 1.0624,13.70563 -5.42428,14.62742 -5.74142,0.81589 2.26538,48.74375 0.12458,50.16992 -2.02512,1.34901 -2.53196,1.58628 -4.42952,1.68054 -1.89758,0.0943 -3.75389,-0.58154 -4.96613,-1.94693 -2.23336,-2.51571 4.86498,-49.57491 0.57192,-50.18338 -5.5938,-0.79332 -6.27505,-15.76136 -6.18022,-15.66711 l 0,0 z"
       inkscape:connector-curvature="0"
       style="fill:#ffffff;fill-opacity:0.75;fill-rule:evenodd;stroke:#5d8a31;stroke-width:1.25295913;stroke-miterlimit:4;stroke-opacity:1" />
  </g>
  <g
     inkscape:groupmode="layer"
     id="layer7"
     inkscape:label="text"
     transform="translate(-816.53126,-608.73463)">
    <text
       xml:space="preserve"
       style="font-size:7.90327311px;font-style:normal;font-weight:normal;line-height:125%;letter-spacing:0px;word-spacing:0px;fill:#5d8a31;fill-opacity:1;stroke:none;display:inline;font-family:Sans"
       x="922.32574"
       y="746.57849"
       id="text3029"
       sodipodi:linespacing="125%"><tspan
         sodipodi:role="line"
         x="922.32574"
         y="746.57849"
         id="tspan3031"><tspan
           x="922.32574"
           y="746.57849"
           style="font-size:11.06458282px;font-variant:normal;font-stretch:normal;text-align:center;writing-mode:lr-tb;text-anchor:middle;fill:#5d8a31;fill-opacity:1;font-family:DejaVu Sans;-inkscape-font-specification:DejaVu Sans"
           id="tspan3033">creating your menyou...</tspan></tspan></text>
  </g>
  <g
     inkscape:groupmode="layer"
     id="layer4"
     inkscape:label="spoon"
     style="display:inline"
     transform="translate(-816.53126,-608.73463)">
    <g
       id="g3950"
       transform="matrix(0.19758183,0,0,0.19758183,804.98543,591.40256)">
      <path
         style="fill:#ffffff;fill-opacity:0.75;fill-rule:evenodd;stroke:#5d8a31;stroke-width:6.34146929;stroke-miterlimit:4;stroke-opacity:1"
         inkscape:connector-curvature="0"
         d="m 135.1707,229.93741 c 12.96529,-24.32869 39.37596,-28.31254 50.89961,-28.31254 11.52552,0 42.57146,2.71301 51.38124,30.22068 8.92267,27.85764 4.89701,155.22912 -27.93308,159.89444 -29.05848,4.12941 11.46533,246.7016 0.6305,253.91967 -10.24954,6.82767 -12.81474,8.02855 -22.41871,8.5056 -9.60399,0.47705 -18.04865,-1.08302 -24.18405,-7.99352 C 152.2422,633.43921 187.21834,396.1954 165.49035,393.11401 137.17845,389.09884 122.2056,254.26427 135.17069,229.9374 l 0,0 z"
         id="path8399"
         stroke-miterlimit="4" />
      <path
         style="fill:#ffffff;stroke:#5d8a31;stroke-width:6.34146929;stroke-linecap:round;stroke-miterlimit:4;stroke-opacity:1;stroke-dashoffset:0"
         inkscape:connector-curvature="0"
         id="path8401"
         d="m 187.5669,231.93755 c 11.93306,-2.5261 23.58813,8.11377 30.14554,27.51975 6.55742,19.40598 6.90267,44.27977 0.89296,64.33541 -6.00968,20.05565 -17.3529,31.88443 -29.33891,30.59484"
         stroke-miterlimit="4" />
    </g>
  </g>
  <g
     inkscape:groupmode="layer"
     id="loading-plate"
     inkscape:label="plate"
     style="display:inline"
     transform="translate(-816.53126,-608.73463)">
    <g
       id="g3954"
       transform="matrix(0.19758183,0,0,0.19758183,804.92093,599.9705)">
      <circle
         id="svg_9"
         data-async="true"
         data-duration="200"
         r="258.15173"
         cy="344.31888"
         cx="496.28986"
         stroke-linejoin="null"
         d="m 754.44159,344.31888 c 0,142.57326 -115.57847,258.15173 -258.15173,258.15173 -142.57327,0 -258.15174,-115.57847 -258.15174,-258.15173 0,-142.57327 115.57847,-258.151735 258.15174,-258.151735 142.57326,0 258.15173,115.578465 258.15173,258.151735 z"
         sodipodi:cx="496.28986"
         sodipodi:cy="344.31888"
         sodipodi:rx="258.15173"
         sodipodi:ry="258.15173"
         style="fill:none;stroke:#5d8a31;stroke-width:5;stroke-linecap:round;stroke-opacity:1;stroke-dasharray:none"
         transform="matrix(1.0770574,0,0,1.0788058,41.752628,13.117377)" />
      <circle
         id="plate-inner"
         r="217.29465"
         data-duration="200"
         cy="346.4928"
         cx="497.73914"
         stroke-linejoin="null"
         d="m 715.03378,346.4928 c 0,120.00852 -97.28612,217.29465 -217.29464,217.29465 -120.00852,0 -217.29465,-97.28613 -217.29465,-217.29465 0,-120.00852 97.28613,-217.29465 217.29465,-217.29465 120.00852,0 217.29464,97.28613 217.29464,217.29465 z"
         sodipodi:cx="497.73914"
         sodipodi:cy="346.4928"
         sodipodi:rx="217.29465"
         sodipodi:ry="217.29465"
         style="fill:none;stroke:#5d8a31;stroke-width:5;stroke-linecap:round;stroke-opacity:1;stroke-dasharray:none"
         transform="matrix(1.0770574,0,0,1.0788058,41.752628,13.117377)" />
    </g>
  </g>
</svg>
